<svg xmlns="http://www.w3.org/2000/svg" xmlns:xlink="http://www.w3.org/1999/xlink" width="448" zoomAndPan="magnify" viewBox="0 0 336 83.999999" height="112" preserveAspectRatio="xMidYMid meet" version="1.0"><defs><g/><clipPath id="4b8007c862"><path d="M 48 13 L 127 13 L 127 83 L 48 83 Z M 48 13 " clip-rule="nonzero"/></clipPath><clipPath id="f9ee84ddc4"><path d="M 135.222656 57.359375 L 95.652344 112.042969 L 19.09375 56.644531 L 58.664062 1.960938 Z M 135.222656 57.359375 " clip-rule="nonzero"/></clipPath><clipPath id="a1a90dd785"><path d="M 135.222656 57.359375 L 95.652344 112.042969 L 19.09375 56.644531 L 58.664062 1.960938 Z M 135.222656 57.359375 " clip-rule="nonzero"/></clipPath><clipPath id="cd0076b03d"><path d="M 54 3 L 68 3 L 68 18 L 54 18 Z M 54 3 " clip-rule="nonzero"/></clipPath><clipPath id="a0fab03018"><path d="M 135.222656 57.359375 L 95.652344 112.042969 L 19.09375 56.644531 L 58.664062 1.960938 Z M 135.222656 57.359375 " clip-rule="nonzero"/></clipPath><clipPath id="bb0738a0a8"><path d="M 135.222656 57.359375 L 95.652344 112.042969 L 19.09375 56.644531 L 58.664062 1.960938 Z M 135.222656 57.359375 " clip-rule="nonzero"/></clipPath></defs><rect x="-33.6" width="403.2" fill="#ffffff" y="-8.4" height="100.799999" fill-opacity="1"/><rect x="-33.6" width="403.2" fill="#ffffff" y="-8.4" height="100.799999" fill-opacity="1"/><rect x="-33.6" width="403.2" fill="#ffffff" y="-8.4" height="100.799999" fill-opacity="1"/><g clip-path="url(#4b8007c862)"><g clip-path="url(#f9ee84ddc4)"><g clip-path="url(#a1a90dd785)"><path fill="#000000" d="M 63.585938 15.222656 L 65.578125 13.539062 C 71.558594 20.625 76.265625 29.90625 78.816406 39.667969 C 79.480469 42.21875 79.988281 44.792969 80.335938 47.402344 C 87.21875 48.890625 93.5 52.945312 96.5 55.117188 C 99.03125 56.949219 100.984375 58.507812 102.53125 59.742188 C 108.757812 64.707031 110.046875 65.75 126.515625 67.027344 L 126.320312 69.644531 C 109.625 68.351562 107.628906 67.15625 100.890625 61.792969 C 99.269531 60.496094 97.4375 59.03125 94.957031 57.234375 C 92.253906 55.28125 86.679688 51.660156 80.621094 50.152344 C 81.128906 56.21875 80.597656 61.859375 79.023438 66.605469 C 76.320312 74.738281 70.691406 79.984375 62.746094 81.773438 C 56.472656 83.1875 53.054688 81.222656 51.289062 79.324219 C 48.582031 76.414062 47.917969 71.554688 49.527344 66.328125 C 51.679688 59.3125 58.6875 50.109375 71.34375 47.277344 C 73.417969 46.832031 75.515625 46.730469 77.625 46.976562 C 76.011719 35.851562 71.007812 23.996094 63.585938 15.222656 Z M 77.949219 49.632812 C 75.929688 49.339844 73.925781 49.40625 71.933594 49.828125 C 60.347656 52.40625 53.984375 60.75 52.027344 67.105469 C 50.699219 71.425781 51.136719 75.335938 53.203125 77.550781 C 55.058594 79.546875 58.152344 80.125 62.167969 79.230469 C 69.273438 77.628906 74.109375 73.101562 76.535156 65.765625 C 78.09375 61.082031 78.519531 55.503906 77.949219 49.632812 Z M 77.949219 49.632812 " fill-opacity="1" fill-rule="nonzero"/></g></g></g><g clip-path="url(#cd0076b03d)"><g clip-path="url(#a0fab03018)"><g clip-path="url(#bb0738a0a8)"><path fill="#000000" d="M 60.25 3.109375 L 66.96875 11.796875 C 67.246094 12.15625 67.445312 12.554688 67.5625 12.992188 C 67.683594 13.429688 67.714844 13.871094 67.65625 14.320312 C 67.601562 14.769531 67.460938 15.191406 67.234375 15.582031 C 67.011719 15.972656 66.71875 16.304688 66.359375 16.582031 C 66.003906 16.855469 65.605469 17.050781 65.167969 17.167969 C 64.730469 17.285156 64.285156 17.3125 63.835938 17.253906 C 63.386719 17.195312 62.964844 17.050781 62.570312 16.824219 C 62.175781 16.597656 61.839844 16.304688 61.5625 15.945312 L 54.847656 7.257812 Z M 60.25 3.109375 " fill-opacity="1" fill-rule="nonzero"/></g></g></g><g fill="#000000" fill-opacity="1"><g transform="translate(34.101684, 50.672364)"><g><path d="M 7.265625 0.21875 C 5.710938 0.0703125 3.90625 0 1.84375 0 L -0.296875 0 L 11.453125 -32.9375 C 11.972656 -34.414062 12.234375 -35.273438 12.234375 -35.515625 C 12.234375 -35.765625 12.226562 -35.914062 12.21875 -35.96875 L 12.234375 -36.015625 C 13.410156 -35.960938 14.65625 -35.9375 15.96875 -35.9375 C 17.050781 -35.9375 18.347656 -35.957031 19.859375 -36 L 19.890625 -35.9375 C 19.847656 -35.863281 19.828125 -35.765625 19.828125 -35.640625 C 19.828125 -35.296875 20.097656 -34.390625 20.640625 -32.921875 L 32.640625 0.078125 C 32.285156 0.0546875 31.863281 0.046875 31.375 0.046875 C 31.375 0.046875 30.90625 0.03125 29.96875 0 C 29.519531 0 29.113281 0 28.75 0 L 24.5625 0 L 22.03125 -7.78125 L 9.8125 -7.78125 Z M 19.921875 -14.265625 L 15.828125 -26.828125 L 11.859375 -14.265625 Z M 19.921875 -14.265625 "/></g></g></g><g fill="#000000" fill-opacity="1"><g transform="translate(66.443146, 50.672364)"><g/></g></g><g fill="#000000" fill-opacity="1"><g transform="translate(84.788889, 50.672364)"><g><path d="M 5.484375 -36.046875 C 7.285156 -35.972656 8.375 -35.9375 8.75 -35.9375 L 10.703125 -35.9375 C 11.660156 -35.9375 12.425781 -36.007812 13 -36.15625 L 12.96875 0 L 5.484375 0 Z M 5.484375 -36.046875 "/></g></g></g><g fill="#000000" fill-opacity="1"><g transform="translate(103.269722, 50.672364)"><g><path d="M 34.265625 -21.671875 C 33.921875 -21.054688 33.75 -19.585938 33.75 -17.265625 L 33.75 -8.890625 C 33.75 -6.347656 32.4375 -4.140625 29.8125 -2.265625 C 27.082031 -0.304688 23.75 0.671875 19.8125 0.671875 C 14.332031 0.671875 9.960938 -1.046875 6.703125 -4.484375 C 3.546875 -7.765625 1.96875 -11.945312 1.96875 -17.03125 C 1.96875 -22.425781 3.570312 -26.925781 6.78125 -30.53125 C 10.363281 -34.582031 15.300781 -36.609375 21.59375 -36.609375 C 25.789062 -36.609375 29.113281 -35.800781 31.5625 -34.1875 L 31.125 -26.21875 L 30.921875 -26.15625 C 30.285156 -27.257812 29.039062 -28.160156 27.1875 -28.859375 C 25.414062 -29.523438 23.5625 -29.859375 21.625 -29.859375 C 19.695312 -29.859375 18.003906 -29.550781 16.546875 -28.9375 C 15.097656 -28.320312 13.867188 -27.453125 12.859375 -26.328125 C 10.734375 -23.992188 9.671875 -20.921875 9.671875 -17.109375 C 9.671875 -13.773438 10.609375 -11.097656 12.484375 -9.078125 C 14.359375 -7.078125 16.773438 -6.078125 19.734375 -6.078125 C 22.992188 -6.078125 25.191406 -6.925781 26.328125 -8.625 C 26.679688 -9.164062 26.859375 -9.773438 26.859375 -10.453125 L 26.859375 -14.9375 L 23.375 -14.9375 C 21.5 -14.9375 20.484375 -14.773438 20.328125 -14.453125 L 20.234375 -14.484375 L 20 -21.53125 C 20.5 -21.394531 22.539062 -21.328125 26.125 -21.328125 L 29.3125 -21.328125 C 31.300781 -21.328125 32.925781 -21.460938 34.1875 -21.734375 Z M 34.265625 -21.671875 "/></g></g></g><g fill="#000000" fill-opacity="1"><g transform="translate(140.123312, 50.672364)"><g><path d="M 4.890625 0 C 4.992188 -0.613281 5.046875 -1.28125 5.046875 -2 L 5.046875 -35.9375 L 10.453125 -35.9375 L 24.78125 -13.40625 L 24.78125 -34.109375 C 24.78125 -35.097656 24.691406 -35.707031 24.515625 -35.9375 L 31.8125 -35.9375 C 31.71875 -35.21875 31.671875 -34.425781 31.671875 -33.5625 L 31.671875 0 L 26.046875 0 L 11.9375 -21.640625 L 11.9375 0 Z M 4.890625 0 "/></g></g></g><g fill="#000000" fill-opacity="1"><g transform="translate(176.841813, 50.672364)"><g><path d="M 11.9375 0.15625 C 11.070312 0.0507812 9.40625 0 6.9375 0 L 4.78125 0 L 4.78125 -36.046875 C 5.9375 -35.972656 7.207031 -35.9375 8.59375 -35.9375 C 9.976562 -35.9375 10.957031 -36.007812 11.53125 -36.15625 L 20.625 -20.734375 L 29.34375 -36.15625 C 29.925781 -36.007812 31.023438 -35.9375 32.640625 -35.9375 C 34.265625 -35.9375 35.65625 -35.972656 36.8125 -36.046875 L 36.8125 0 L 34.640625 0 C 32.171875 0 30.503906 0.0507812 29.640625 0.15625 L 29.640625 -24.046875 L 20.8125 -8.234375 L 11.9375 -22.78125 Z M 11.9375 0.15625 "/></g></g></g><g fill="#000000" fill-opacity="1"><g transform="translate(218.423701, 50.672364)"><g><path d="M 22.734375 -6.484375 C 23.847656 -6.484375 24.617188 -6.59375 25.046875 -6.8125 L 25.15625 -6.78125 L 24.890625 0 L 4.640625 0 L 4.640625 -36.125 C 5.128906 -36.09375 5.671875 -36.066406 6.265625 -36.046875 L 8.15625 -36 C 9.414062 -35.957031 10.785156 -35.9375 12.265625 -35.9375 C 16.390625 -35.9375 20.472656 -36.007812 24.515625 -36.15625 C 24.316406 -34.570312 24.21875 -32.457031 24.21875 -29.8125 C 24.21875 -29.519531 24.234375 -29.300781 24.265625 -29.15625 L 24.21875 -29.078125 C 23.28125 -29.347656 21.945312 -29.484375 20.21875 -29.484375 L 11.703125 -29.484375 L 11.703125 -22.59375 L 18.109375 -22.59375 C 20.085938 -22.59375 21.273438 -22.644531 21.671875 -22.75 L 21.75 -16.078125 C 20.882812 -16.171875 19.769531 -16.21875 18.40625 -16.21875 L 11.703125 -16.21875 L 11.703125 -6.484375 Z M 22.734375 -6.484375 "/></g></g></g><g fill="#000000" fill-opacity="1"><g transform="translate(246.14496, 50.672364)"><g><path d="M 4.890625 0 C 4.992188 -0.613281 5.046875 -1.28125 5.046875 -2 L 5.046875 -35.9375 L 10.453125 -35.9375 L 24.78125 -13.40625 L 24.78125 -34.109375 C 24.78125 -35.097656 24.691406 -35.707031 24.515625 -35.9375 L 31.8125 -35.9375 C 31.71875 -35.21875 31.671875 -34.425781 31.671875 -33.5625 L 31.671875 0 L 26.046875 0 L 11.9375 -21.640625 L 11.9375 0 Z M 4.890625 0 "/></g></g></g><g fill="#000000" fill-opacity="1"><g transform="translate(282.863451, 50.672364)"><g><path d="M 17.625 0.15625 C 16.757812 0.0507812 14.53125 0 10.9375 0 L 10.078125 0 L 10.078125 -29.890625 L 4.734375 -29.890625 C 3.140625 -29.890625 2.195312 -29.804688 1.90625 -29.640625 C 1.625 -29.484375 1.40625 -29.34375 1.25 -29.21875 L 1.15625 -29.234375 L 1.15625 -36.15625 L 1.25 -36.234375 C 1.84375 -36.035156 3.441406 -35.9375 6.046875 -35.9375 L 23 -35.9375 C 24.582031 -35.9375 25.515625 -36.015625 25.796875 -36.171875 C 26.085938 -36.335938 26.316406 -36.484375 26.484375 -36.609375 L 26.5625 -36.59375 L 26.5625 -29.671875 L 26.484375 -29.59375 C 25.890625 -29.789062 24.285156 -29.890625 21.671875 -29.890625 L 17.625 -29.890625 Z M 17.625 0.15625 "/></g></g></g></svg>